<svg width="1233" height="217" viewBox="0 0 1233 217" fill="#D5D5D5" xmlns="http://www.w3.org/2000/svg">
<path d="M0.881876 216.114V0.653997H57.0079C66.2292 0.653997 74.9185 1.36333 83.0759 2.782C91.4105 4.20067 98.7699 6.94934 105.154 11.028C111.538 14.9293 116.503 20.604 120.05 28.052C123.774 35.3227 125.636 44.9873 125.636 57.046C125.636 65.7353 124.306 73.0947 121.646 79.124C119.163 84.976 115.528 89.6753 110.74 93.222C106.129 96.7687 100.543 99.1627 93.9819 100.404C102.317 101.468 109.321 104.217 114.996 108.65C120.671 112.906 124.927 118.669 127.764 125.94C130.779 133.211 132.286 141.989 132.286 152.274C132.286 163.446 130.779 173.111 127.764 181.268C124.927 189.248 120.759 195.809 115.262 200.952C109.765 206.095 102.937 209.907 94.7799 212.39C86.7999 214.873 77.5785 216.114 67.1159 216.114H0.881876ZM48.4959 182.864H58.6039C69.0665 182.864 76.2485 180.204 80.1499 174.884C84.2285 169.564 86.2679 161.761 86.2679 151.476C86.2679 143.319 85.3812 136.846 83.6079 132.058C81.8345 127.27 78.9085 123.812 74.8299 121.684C70.7512 119.379 65.2539 118.226 58.3379 118.226H48.4959V182.864ZM48.4959 86.838H57.8059C65.0765 86.838 70.5739 85.774 74.2979 83.646C78.0219 81.3407 80.5045 78.06 81.7459 73.804C83.1645 69.548 83.8739 64.4053 83.8739 58.376C83.8739 52.7013 82.8099 48.002 80.6819 44.278C78.7312 40.3767 75.7165 37.4507 71.6379 35.5C67.7365 33.5493 62.7712 32.574 56.7419 32.574H48.4959V86.838ZM219.012 216.114L259.71 0.653997H313.974L354.14 216.114H310.25L303.068 170.628H271.414L263.966 216.114H219.012ZM275.67 142.166H298.546L287.108 58.11L275.67 142.166ZM446.46 216.114V0.653997H505.778C520.319 0.653997 532.91 2.25 543.55 5.442C554.19 8.634 562.436 14.3973 568.288 22.732C574.317 30.8893 577.332 42.5047 577.332 57.578C577.332 66.4447 576.623 74.336 575.204 81.252C573.785 88.168 571.125 94.1973 567.224 99.34C563.5 104.305 558.091 108.473 550.998 111.842L580.524 216.114H531.314L507.64 119.556H494.074V216.114H446.46ZM494.074 92.158H507.374C514.113 92.158 519.344 91.0053 523.068 88.7C526.792 86.2173 529.363 82.7593 530.782 78.326C532.378 73.7153 533.176 68.218 533.176 61.834C533.176 52.6127 531.491 45.4307 528.122 40.288C524.753 35.1453 518.546 32.574 509.502 32.574H494.074V92.158ZM677.562 216.114V0.653997H733.688C742.909 0.653997 751.598 1.36333 759.756 2.782C768.09 4.20067 775.45 6.94934 781.834 11.028C788.218 14.9293 793.183 20.604 796.73 28.052C800.454 35.3227 802.316 44.9873 802.316 57.046C802.316 65.7353 800.986 73.0947 798.326 79.124C795.843 84.976 792.208 89.6753 787.42 93.222C782.809 96.7687 777.223 99.1627 770.662 100.404C778.996 101.468 786.001 104.217 791.676 108.65C797.35 112.906 801.606 118.669 804.444 125.94C807.458 133.211 808.966 141.989 808.966 152.274C808.966 163.446 807.458 173.111 804.444 181.268C801.606 189.248 797.439 195.809 791.942 200.952C786.444 206.095 779.617 209.907 771.46 212.39C763.48 214.873 754.258 216.114 743.796 216.114H677.562ZM725.176 182.864H735.284C745.746 182.864 752.928 180.204 756.83 174.884C760.908 169.564 762.948 161.761 762.948 151.476C762.948 143.319 762.061 136.846 760.288 132.058C758.514 127.27 755.588 123.812 751.51 121.684C747.431 119.379 741.934 118.226 735.018 118.226H725.176V182.864ZM725.176 86.838H734.486C741.756 86.838 747.254 85.774 750.978 83.646C754.702 81.3407 757.184 78.06 758.426 73.804C759.844 69.548 760.554 64.4053 760.554 58.376C760.554 52.7013 759.49 48.002 757.362 44.278C755.411 40.3767 752.396 37.4507 748.318 35.5C744.416 33.5493 739.451 32.574 733.422 32.574H725.176V86.838ZM906.585 216.114V0.653997H1003.41V33.106H954.199V86.572H991.705V119.556H954.199V183.928H1003.94V216.114H906.585ZM1098.2 216.114V0.653997H1157.52C1172.06 0.653997 1184.65 2.25 1195.29 5.442C1205.93 8.634 1214.18 14.3973 1220.03 22.732C1226.06 30.8893 1229.07 42.5047 1229.07 57.578C1229.07 66.4447 1228.37 74.336 1226.95 81.252C1225.53 88.168 1222.87 94.1973 1218.97 99.34C1215.24 104.305 1209.83 108.473 1202.74 111.842L1232.27 216.114H1183.06L1159.38 119.556H1145.82V216.114H1098.2ZM1145.82 92.158H1159.12C1165.86 92.158 1171.09 91.0053 1174.81 88.7C1178.53 86.2173 1181.11 82.7593 1182.52 78.326C1184.12 73.7153 1184.92 68.218 1184.92 61.834C1184.92 52.6127 1183.23 45.4307 1179.86 40.288C1176.5 35.1453 1170.29 32.574 1161.24 32.574H1145.82V92.158Z"/>
</svg>
