<?xml version="1.0" encoding="UTF-8"?><!DOCTYPE svg PUBLIC "-//W3C//DTD SVG 1.1//EN" "http://www.w3.org/Graphics/SVG/1.1/DTD/svg11.dtd"><svg xmlns="http://www.w3.org/2000/svg" xmlns:xlink="http://www.w3.org/1999/xlink"><symbol id="bag" viewBox="0 0 489 489">
	<path d="M440.1,422.7l-28-315.3c-0.6-7-6.5-12.3-13.4-12.3h-57.6C340.3,42.5,297.3,0,244.5,0s-95.8,42.5-96.6,95.1H90.3
		c-7,0-12.8,5.3-13.4,12.3l-28,315.3c0,0.4-0.1,0.8-0.1,1.2c0,35.9,32.9,65.1,73.4,65.1h244.6c40.5,0,73.4-29.2,73.4-65.1
		C440.2,423.5,440.2,423.1,440.1,422.7z M244.5,27c37.9,0,68.8,30.4,69.6,68.1H174.9C175.7,57.4,206.6,27,244.5,27z M366.8,462
		H122.2c-25.4,0-46-16.8-46.4-37.5l26.8-302.3h45.2v41c0,7.5,6,13.5,13.5,13.5s13.5-6,13.5-13.5v-41h139.3v41
		c0,7.5,6,13.5,13.5,13.5s13.5-6,13.5-13.5v-41h45.2l26.9,302.3C412.8,445.2,392.1,462,366.8,462z"/>
</symbol><symbol id="calendar" viewBox="0 0 512 512">
<path d="M148 288h-40c-6.6 0-12-5.4-12-12v-40c0-6.6 5.4-12 12-12h40c6.6 0 12 5.4 12 12v40c0 6.6-5.4 12-12 12zm108-12v-40c0-6.6-5.4-12-12-12h-40c-6.6 0-12 5.4-12 12v40c0 6.6 5.4 12 12 12h40c6.6 0 12-5.4 12-12zm96 0v-40c0-6.6-5.4-12-12-12h-40c-6.6 0-12 5.4-12 12v40c0 6.6 5.4 12 12 12h40c6.6 0 12-5.4 12-12zm-96 96v-40c0-6.6-5.4-12-12-12h-40c-6.6 0-12 5.4-12 12v40c0 6.6 5.4 12 12 12h40c6.6 0 12-5.4 12-12zm-96 0v-40c0-6.6-5.4-12-12-12h-40c-6.6 0-12 5.4-12 12v40c0 6.6 5.4 12 12 12h40c6.6 0 12-5.4 12-12zm192 0v-40c0-6.6-5.4-12-12-12h-40c-6.6 0-12 5.4-12 12v40c0 6.6 5.4 12 12 12h40c6.6 0 12-5.4 12-12zm96-260v352c0 26.5-21.5 48-48 48H48c-26.5 0-48-21.5-48-48V112c0-26.5 21.5-48 48-48h48V12c0-6.6 5.4-12 12-12h40c6.6 0 12 5.4 12 12v52h128V12c0-6.6 5.4-12 12-12h40c6.6 0 12 5.4 12 12v52h48c26.5 0 48 21.5 48 48zm-48 346V160H48v298c0 3.3 2.7 6 6 6h340c3.3 0 6-2.7 6-6z">
</path>
</symbol><symbol id="cart" viewBox="0 0 20 15">
        <path fill-rule="evenodd" fill="rgb(141, 141, 141)" d="M5.835,14.998 L5.835,10.827 L19.994,10.827 L19.994,14.998 L5.835,14.998 ZM5.835,5.413 L19.994,5.413 L19.994,9.585 L5.835,9.585 L5.835,5.413 ZM5.835,0.000 L19.994,0.000 L19.994,4.172 L5.835,4.172 L5.835,0.000 ZM0.007,10.827 L4.429,10.827 L4.429,14.998 L0.007,14.998 L0.007,10.827 ZM0.007,5.413 L4.429,5.413 L4.429,9.585 L0.007,9.585 L0.007,5.413 ZM0.007,0.000 L4.429,0.000 L4.429,4.172 L0.007,4.172 L0.007,0.000 Z"/>
    </symbol><symbol id="check" viewBox="0 0 512 512">
<path d="M173.898 439.404l-166.4-166.4c-9.997-9.997-9.997-26.206 0-36.204l36.203-36.204c9.997-9.998 26.207-9.998 36.204 0L192 312.69 432.095 72.596c9.997-9.997 26.207-9.997 36.204 0l36.203 36.204c9.997 9.997 9.997 26.206 0 36.204l-294.4 294.401c-9.998 9.997-26.207 9.997-36.204-.001z">
</path>
</symbol><symbol id="clock" viewBox="0 0 512 512">
<path d="M256 8C119 8 8 119 8 256s111 248 248 248 248-111 248-248S393 8 256 8zm0 448c-110.5 0-200-89.5-200-200S145.5 56 256 56s200 89.5 200 200-89.5 200-200 200zm61.8-104.4l-84.9-61.7c-3.1-2.3-4.9-5.9-4.9-9.7V116c0-6.6 5.4-12 12-12h32c6.6 0 12 5.4 12 12v141.7l66.8 48.6c5.4 3.9 6.5 11.4 2.6 16.8L334.6 349c-3.9 5.3-11.4 6.5-16.8 2.6z">
</path>
</symbol><symbol id="double-arrows" viewBox="0 0 612.02 612.02">
			<path d="M596.96,269.674L342.381,15.094c-20.079-20.079-52.644-20.079-72.723,0c-20.079,20.079-20.079,52.644,0,72.723
				L487.852,306.01L269.658,524.202c-20.079,20.079-20.079,52.644,0,72.723s52.644,20.079,72.723,0L596.96,342.346
				C617.039,322.317,617.039,289.753,596.96,269.674z M290.858,254.258L88.744,41.238c-20.309-21.378-53.204-21.378-73.513,0
				s-20.309,56.058,0,77.462l165.371,174.289L15.231,467.278c-20.309,21.379-20.309,56.083,0,77.462s53.204,21.379,73.513,0
				L290.858,331.72C311.167,310.342,311.167,275.662,290.858,254.258z"/>
		
</symbol><symbol id="facebook" viewBox="0 0 512 512">
<path d="m75 512h167v-182h-60v-60h60v-75c0-41.355469 33.644531-75 75-75h75v60h-60c-16.542969 0-30 13.457031-30 30v60h87.292969l-10 60h-77.292969v182h135c41.355469 0 75-33.644531 75-75v-362c0-41.355469-33.644531-75-75-75h-362c-41.355469 0-75 33.644531-75 75v362c0 41.355469 33.644531 75 75 75zm-45-437c0-24.8125 20.1875-45 45-45h362c24.8125 0 45 20.1875 45 45v362c0 24.8125-20.1875 45-45 45h-105v-122h72.707031l20-120h-92.707031v-30h90v-120h-105c-57.898438 0-105 47.101562-105 105v45h-60v120h60v122h-137c-24.8125 0-45-20.1875-45-45zm0 0"/></symbol><symbol id="fax" viewBox="0 0 64 64">
<path d="m62 23h-4v-1c0-1.654-1.346-3-3-3h-5v-8c0-.314-.148-.611-.4-.8l-3.6-2.7v-5.5c0-.553-.447-1-1-1h-26c-.553 0-1 .447-1 1v5.5l-3.6 2.7c-.252.189-.4.486-.4.8v8h-5c-1.654 0-3 1.346-3 3v1h-4c-.553 0-1 .447-1 1v18c0 .553.447 1 1 1h7 9v19c0 .553.447 1 1 1h26c.553 0 1-.447 1-1v-19h9 7c.553 0 1-.447 1-1v-18c0-.553-.447-1-1-1zm-1 2v6h-3v-6zm-13-13.5v7.5h-2v-9zm-28-8.5h24v16h-24zm-4 8.5 2-1.5v9h-2zm-10 13.5v6h-3v-6zm-3 8h3v7c0 .352.072.686.184 1h-3.184zm41 28h-24v-26h24zm-25-28c-.553 0-1 .447-1 1v3h-2v-6h32v6h-2v-3c0-.553-.447-1-1-1zm27 8v-2h3c.553 0 1-.447 1-1v-8c0-.553-.447-1-1-1h-34c-.553 0-1 .447-1 1v8c0 .553.447 1 1 1h3v2h-9c-.552 0-1-.448-1-1v-18c0-.552.448-1 1-1h10 26 10c.552 0 1 .448 1 1v18c0 .552-.448 1-1 1zm11.816 0c.112-.314.184-.648.184-1v-7h3v8z"/>
<path d="m22 38h20v2h-20z"/>
<path d="m22 42h20v2h-20z"/>
<path d="m22 46h20v2h-20z"/>
<path d="m36 57h6v2h-6z"/>
</symbol><symbol id="heart" viewBox="0 0 20 20">
        <path d="M1484.78,49.589a6.683,6.683,0,0,0-4.17-4.371c-1.71-.595-3.75,0-5.58,1.611-1.83-1.569-3.88-2.122-5.58-1.569a6.884,6.884,0,0,0-4.17,4.371c-0.47,1.57-.51,4.117,1.95,7.215,1.11,1.4,2.82,3.4,4.22,4.965,2.68,3.014,3.11,3.183,3.49,3.183h0.17c0.39,0,.77-0.168,3.45-3.224,1.41-1.613,3.11-3.609,4.22-4.966C1485.25,53.706,1485.25,51.159,1484.78,49.589Zm-3.28,6.2c-1.96,2.462-5.32,6.324-6.47,7.385-1.15-1.061-4.52-4.924-6.48-7.385-1.61-1.994-2.21-3.947-1.7-5.687a4.986,4.986,0,0,1,3.11-3.225c1.23-.467,2.9.169,4.43,1.655a0.84,0.84,0,0,0,1.06.126,0.447,0.447,0,0,0,.22-0.17c1.53-1.443,3.19-2.079,4.42-1.655a5.168,5.168,0,0,1,3.11,3.268C1483.71,51.8,1483.12,53.79,1481.5,55.784Z" transform="translate(-1465.03 -45)"/>
    </symbol><symbol id="inner-arrow-left" viewBox="0 0 48 31">
<path fill-rule="evenodd" clip-rule="evenodd" d="M1.55627 1.56616H29.5563V15.0662L16.7634 15.0662L19.0918 12.7377C19.2871 12.5425 19.2871 12.2259 19.0918 12.0306C18.8965 11.8354 18.58 11.8354 18.3847 12.0306L15.2027 15.2126C15.0075 15.4079 15.0075 15.7245 15.2027 15.9197L18.3847 19.1017C18.58 19.297 18.8965 19.297 19.0918 19.1017C19.2871 18.9064 19.2871 18.5898 19.0918 18.3946L16.7634 16.0662L29.5563 16.0662V29.5662H1.55627V1.56616ZM30.5563 16.0662V29.5662V30.5662H29.5563H1.55627H0.556274V29.5662V1.56616V0.566162H1.55627H29.5563H30.5563V1.56616V15.0662L47.5563 15.0662V16.0662L30.5563 16.0662Z"/>
</symbol><symbol id="inner-arrow-right" viewBox="0 0 48 31">
<path fill-rule="evenodd" clip-rule="evenodd" d="M46.2996 1.56616H18.2996V15.0662L31.0925 15.0662L28.764 12.7377C28.5688 12.5425 28.5688 12.2259 28.764 12.0306C28.9593 11.8354 29.2759 11.8354 29.4711 12.0306L32.6531 15.2126C32.8484 15.4079 32.8484 15.7245 32.6531 15.9197L29.4711 19.1017C29.2759 19.297 28.9593 19.297 28.764 19.1017C28.5688 18.9064 28.5688 18.5898 28.764 18.3946L31.0925 16.0662L18.2996 16.0662V29.5662H46.2996V1.56616ZM17.2996 16.0662V29.5662V30.5662H18.2996H46.2996H47.2996V29.5662V1.56616V0.566162H46.2996H18.2996H17.2996V1.56616V15.0662L0.299561 15.0662V16.0662L17.2996 16.0662Z"/>
</symbol><symbol id="instagram" viewBox="0 0 512 512">
<path d="m75 512h362c41.355469 0 75-33.644531 75-75v-362c0-41.355469-33.644531-75-75-75h-362c-41.355469 0-75 33.644531-75 75v362c0 41.355469 33.644531 75 75 75zm-45-437c0-24.8125 20.1875-45 45-45h362c24.8125 0 45 20.1875 45 45v362c0 24.8125-20.1875 45-45 45h-362c-24.8125 0-45-20.1875-45-45zm0 0"/>
<path d="m256 391c74.4375 0 135-60.5625 135-135s-60.5625-135-135-135-135 60.5625-135 135 60.5625 135 135 135zm0-240c57.898438 0 105 47.101562 105 105s-47.101562 105-105 105-105-47.101562-105-105 47.101562-105 105-105zm0 0"/>
<path d="m406 151c24.8125 0 45-20.1875 45-45s-20.1875-45-45-45-45 20.1875-45 45 20.1875 45 45 45zm0-60c8.269531 0 15 6.730469 15 15s-6.730469 15-15 15-15-6.730469-15-15 6.730469-15 15-15zm0 0"/></symbol><symbol id="long-arrow-alt-right-solid" viewBox="0 0 448 512"><path d="M313.941 216H12c-6.627 0-12 5.373-12 12v56c0 6.627 5.373 12 12 12h301.941v46.059c0 21.382 25.851 32.09 40.971 16.971l86.059-86.059c9.373-9.373 9.373-24.569 0-33.941l-86.059-86.059c-15.119-15.119-40.971-4.411-40.971 16.971V216z"/></symbol><symbol id="mail" viewBox="0 0 512 512">

		<path d="M469.333,64H42.667C19.135,64,0,83.135,0,106.667v298.667C0,428.865,19.135,448,42.667,448h426.667
			C492.865,448,512,428.865,512,405.333V106.667C512,83.135,492.865,64,469.333,64z M42.667,85.333h426.667
			c1.572,0,2.957,0.573,4.432,0.897c-36.939,33.807-159.423,145.859-202.286,184.478c-3.354,3.021-8.76,6.625-15.479,6.625
			s-12.125-3.604-15.49-6.635C197.652,232.085,75.161,120.027,38.228,86.232C39.706,85.908,41.094,85.333,42.667,85.333z
			 M21.333,405.333V106.667c0-2.09,0.63-3.986,1.194-5.896c28.272,25.876,113.736,104.06,169.152,154.453
			C136.443,302.671,50.957,383.719,22.46,410.893C21.957,409.079,21.333,407.305,21.333,405.333z M469.333,426.667H42.667
			c-1.704,0-3.219-0.594-4.81-0.974c29.447-28.072,115.477-109.586,169.742-156.009c7.074,6.417,13.536,12.268,18.63,16.858
			c8.792,7.938,19.083,12.125,29.771,12.125s20.979-4.188,29.76-12.115c5.096-4.592,11.563-10.448,18.641-16.868
			c54.268,46.418,140.286,127.926,169.742,156.009C472.552,426.073,471.039,426.667,469.333,426.667z M490.667,405.333
			c0,1.971-0.624,3.746-1.126,5.56c-28.508-27.188-113.984-108.227-169.219-155.668c55.418-50.393,140.869-128.57,169.151-154.456
			c0.564,1.91,1.194,3.807,1.194,5.897V405.333z"/>
	
</symbol><symbol id="pin" viewBox="0 0 368.16 368.16">
<path d="M184.08,0c-74.992,0-136,61.008-136,136c0,24.688,11.072,51.24,11.536,52.36c3.576,8.488,10.632,21.672,15.72,29.4
	l93.248,141.288c3.816,5.792,9.464,9.112,15.496,9.112s11.68-3.32,15.496-9.104l93.256-141.296
	c5.096-7.728,12.144-20.912,15.72-29.4c0.464-1.112,11.528-27.664,11.528-52.36C320.08,61.008,259.072,0,184.08,0z
		M293.8,182.152c-3.192,7.608-9.76,19.872-14.328,26.8l-93.256,141.296c-1.84,2.792-2.424,2.792-4.264,0L88.696,208.952
	c-4.568-6.928-11.136-19.2-14.328-26.808C74.232,181.816,64.08,157.376,64.08,136c0-66.168,53.832-120,120-120
	c66.168,0,120,53.832,120,120C304.08,157.408,293.904,181.912,293.8,182.152z"/>
<path d="M184.08,64.008c-39.704,0-72,32.304-72,72c0,39.696,32.296,72,72,72c39.704,0,72-32.304,72-72
	C256.08,96.312,223.784,64.008,184.08,64.008z M184.08,192.008c-30.872,0-56-25.12-56-56s25.128-56,56-56s56,25.12,56,56
	S214.952,192.008,184.08,192.008z"/>
		
</symbol><symbol id="pinterest" viewBox="-46 0 512 512.00005"><path d="m54.023438 298.3125 17.359374 11.367188 6.566407-24.644532c11.621093-43.320312 10.390625-41.40625 11.554687-46.214844-.472656-2.699218-12.707031-35.246093-4.1875-74.789062l.167969-.910156c11.644531-76.882813 140.308594-97.808594 200.054687-47.78125 25.773438 21.582031 35.472657 53.96875 28.039063 93.660156-5.335937 28.503906-14.652344 49.757812-29.3125 66.886719-20.238281 23.648437-45.691406 25.570312-60.769531 17.347656-5.613282-3.058594-18.050782-12.261719-12.285156-31.554687 8.246093-27.613282 23.144531-69.203126 24.90625-99.363282 1.570312-26.867187-14.632813-48.734375-40.320313-54.414062-28.632813-6.332032-61.625 9.121094-75.890625 45.164062-10.265625 25.925782-10.238281 52.871094.085938 82.339844.335937 7.269531-7.0625 34.683594-13.03125 56.800781-18.042969 66.867188-42.757813 158.4375-18.6875 205.066407l7.605468 14.726562 13.890625-9.035156c39.699219-25.808594 62.890625-100.882813 75.601563-147.652344 33.460937 24.777344 80.875 26.867188 127.773437 3.964844 75.289063-36.769532 125.511719-124.511719 100.347657-222.199219-28.046876-108.878906-136.898438-151.082031-246.535157-133.050781-90.378906 14.859375-147.859375 73.402344-163.117187 145.558594-12.871094 60.878906 7.296875 120.648437 50.183594 148.726562zm-20.84375-142.523438c13.628906-64.464843 65.457031-110.136718 138.640624-122.171874 87.890626-14.453126 187.726563 14.246093 212.632813 110.941406 23.035156 89.421875-27.636719 160.019531-84.46875 187.773437-34.863281 17.023438-82.242187 22.070313-110.667969-14.824219l-18.546875-24.070312-7.820312 29.359375c-10.328125 38.734375-27.03125 104.492187-53.863281 139.636719-5.269532-43.472656 14.320312-116.078125 26.824218-162.410156 11.9375-44.230469 16.621094-62.625 12.628906-73.828126-8.074218-22.660156-8.320312-42.96875-.753906-62.09375 8.476563-21.410156 26.554688-30.234374 41.535156-26.921874 5.410157 1.199218 17.882813 5.871093 16.859376 23.386718-1.515626 25.910156-15.984376 66.6875-23.703126 92.53125-8.105468 27.128906 2.359376 53.21875 26.664063 66.46875 27.3125 14.886719 68.316406 10.390625 97.90625-24.179687 18.21875-21.289063 29.660156-46.984375 36.003906-80.867188 4.90625-26.195312 3.742188-50.28125-3.457031-71.597656-6.695312-19.828125-18.40625-36.84375-34.804688-50.578125-77.382812-64.792969-233.136718-35.035156-248.882812 65.820312-5.605469 26.367188-4.6875 53.8125 2.722656 81.640626-1.191406 5.21875-2.882812 11.902343-4.675781 18.773437-20.871094-24.542969-29.160156-63.109375-20.773437-102.789063zm0 0"/></symbol><symbol id="search" viewBox="0 0 511.999 511.999">
	<path d="M508.874,478.708L360.142,329.976c28.21-34.827,45.191-79.103,45.191-127.309c0-111.75-90.917-202.667-202.667-202.667
		S0,90.917,0,202.667s90.917,202.667,202.667,202.667c48.206,0,92.482-16.982,127.309-45.191l148.732,148.732
		c4.167,4.165,10.919,4.165,15.086,0l15.081-15.082C513.04,489.627,513.04,482.873,508.874,478.708z M202.667,362.667
		c-88.229,0-160-71.771-160-160s71.771-160,160-160s160,71.771,160,160S290.896,362.667,202.667,362.667z"/>
</symbol><symbol id="telegram" viewBox="1 -35 511.99993 511">
<path d="m121.453125 253.171875 63.554687 158.886719 82.75-82.753906 141.535157 112.503906 102.707031-441.308594-512 205.480469zm-39.933594-47.640625 244.046875-97.945312-194.074218 117.363281zm287.535157-89.25-161.980469 148.1875-19.484375 73.425781-36.035156-90.085937zm-149.851563 219.230469 9.816406-36.996094 15.144531 12.035156zm171.65625 53.394531-147.386719-117.152344 221.902344-203.007812zm0 0"/></symbol><symbol id="telephone" viewBox="0 0 74 74">
<path d="m62.337 69.086h-49.924a3.778 3.778 0 0 1 -3.774-3.774v-6.612a1 1 0 0 1 1-1h55.472a1 1 0 0 1 1 1v6.611a3.778 3.778 0 0 1 -3.774 3.775zm-51.698-9.386v5.611a1.776 1.776 0 0 0 1.774 1.774h49.924a1.776 1.776 0 0 0 1.774-1.774v-5.611z"/>
<path d="m31.417 28.006h-4.8a1 1 0 0 1 -1-1v-2.843a2.522 2.522 0 0 1 2.52-2.521h1.763a2.523 2.523 0 0 1 2.521 2.521v2.843a1 1 0 0 1 -1.004 1zm-3.8-2h2.8v-1.843a.521.521 0 0 0 -.521-.521h-1.754a.52.52 0 0 0 -.52.521z"/>
<path d="m48.128 28.006h-4.8a1 1 0 0 1 -1-1v-2.843a2.523 2.523 0 0 1 2.521-2.521h1.754a2.522 2.522 0 0 1 2.52 2.521v2.843a1 1 0 0 1 -.995 1zm-3.8-2h2.8v-1.843a.52.52 0 0 0 -.52-.521h-1.754a.521.521 0 0 0 -.521.521z"/>
<path d="m70.567 30.005a.981.981 0 0 1 -.233-.027l-15.082-3.6a1 1 0 1 1 .465-1.945l15.082 3.6a1 1 0 0 1 -.232 1.972z"/>
<path d="m6.844 34.671a3.351 3.351 0 0 1 -3.325-2.9l-1.061-7.846a9.337 9.337 0 0 1 5.108-9.593c10.656-5.318 22.091-6.432 29.809-6.432 7.74 0 19.2 1.115 29.818 6.429a9.339 9.339 0 0 1 5.1 9.589l-1.062 7.85a3.352 3.352 0 0 1 -4.1 2.812l-10.544-2.519a3.364 3.364 0 0 1 -2.555-3.614l.6-5.7a2.125 2.125 0 0 0 -1.667-2.289 71 71 0 0 0 -31.138 0 2.126 2.126 0 0 0 -1.666 2.289l.6 5.706a3.363 3.363 0 0 1 -2.558 3.614l-10.584 2.514a3.341 3.341 0 0 1 -.775.09zm30.531-24.771c-7.5 0-18.609 1.08-28.916 6.223a7.336 7.336 0 0 0 -4.018 7.536l1.059 7.841a1.352 1.352 0 0 0 1.655 1.135l10.588-2.521a1.357 1.357 0 0 0 1.032-1.458l-.6-5.706a4.127 4.127 0 0 1 3.218-4.45 73 73 0 0 1 32.008 0 4.126 4.126 0 0 1 3.222 4.452l-.6 5.7a1.356 1.356 0 0 0 1.031 1.458l10.541 2.518a1.353 1.353 0 0 0 1.653-1.128l1.061-7.85a7.334 7.334 0 0 0 -4.009-7.534c-10.274-5.139-21.4-6.216-28.925-6.216z"/>
<path d="m4.181 30.005a1 1 0 0 1 -.231-1.972l15.25-3.643a1 1 0 1 1 .465 1.945l-15.25 3.643a1 1 0 0 1 -.234.027z"/>
<path d="m65.111 59.7h-55.472a1 1 0 0 1 -1-1v-9.548a6.631 6.631 0 0 1 3.615-5.925 18.1 18.1 0 0 0 9.876-13.647 4.127 4.127 0 0 1 4.1-3.58h22.288a4.127 4.127 0 0 1 4.1 3.58 18.1 18.1 0 0 0 9.882 13.647 6.631 6.631 0 0 1 3.615 5.925v9.548a1 1 0 0 1 -1.004 1zm-54.472-2h53.472v-8.548a4.616 4.616 0 0 0 -2.5-4.133 20.1 20.1 0 0 1 -10.971-15.155 2.14 2.14 0 0 0 -2.122-1.864h-22.286a2.14 2.14 0 0 0 -2.122 1.864 20.1 20.1 0 0 1 -10.967 15.155 4.616 4.616 0 0 0 -2.5 4.133z"/>
<path d="m37.375 54.694a11.145 11.145 0 1 1 11.145-11.145 11.157 11.157 0 0 1 -11.145 11.145zm0-20.29a9.145 9.145 0 1 0 9.145 9.145 9.156 9.156 0 0 0 -9.145-9.149z"/>
<path d="m37.375 38.452a1 1 0 0 1 -1-1v-.62a1 1 0 1 1 2 0v.62a1 1 0 0 1 -1 1z"/>
<path d="m33.063 40.237a1 1 0 0 1 -.706-.292l-.439-.438a1 1 0 1 1 1.414-1.415l.438.438a1 1 0 0 1 -.707 1.707z"/>
<path d="m31.277 44.549h-.619a1 1 0 1 1 0-2h.619a1 1 0 0 1 0 2z"/>
<path d="m32.625 49.3a1 1 0 0 1 -.707-1.708l.439-.438a1 1 0 0 1 1.413 1.415l-.438.438a1 1 0 0 1 -.707.293z"/>
<path d="m37.375 51.267a1 1 0 0 1 -1-1v-.62a1 1 0 1 1 2 0v.62a1 1 0 0 1 -1 1z"/>
<path d="m42.125 49.3a1 1 0 0 1 -.707-.293l-.438-.438a1 1 0 1 1 1.413-1.415l.439.438a1 1 0 0 1 -.707 1.708z"/>
<path d="m44.092 44.549h-.619a1 1 0 0 1 0-2h.619a1 1 0 0 1 0 2z"/>
<path d="m41.687 40.237a1 1 0 0 1 -.707-1.707l.438-.438a1 1 0 1 1 1.414 1.415l-.439.438a1 1 0 0 1 -.706.292z"/>
</symbol><symbol id="times" viewBox="0 0 512 512">
<path d="M242.72 256l100.07-100.07c12.28-12.28 12.28-32.19 0-44.48l-22.24-22.24c-12.28-12.28-32.19-12.28-44.48 0L176 189.28 75.93 89.21c-12.28-12.28-32.19-12.28-44.48 0L9.21 111.45c-12.28 12.28-12.28 32.19 0 44.48L109.28 256 9.21 356.07c-12.28 12.28-12.28 32.19 0 44.48l22.24 22.24c12.28 12.28 32.2 12.28 44.48 0L176 322.72l100.07 100.07c12.28 12.28 32.2 12.28 44.48 0l22.24-22.24c12.28-12.28 12.28-32.19 0-44.48L242.72 256z">
</path>
</symbol><symbol id="youtube" viewBox="0 -61 512 512">
<path d="m75 390h362c41.355469 0 75-33.644531 75-75v-240c0-41.355469-33.644531-75-75-75h-362c-41.355469 0-75 33.644531-75 75v240c0 41.355469 33.644531 75 75 75zm-45-315c0-24.8125 20.1875-45 45-45h362c24.8125 0 45 20.1875 45 45v240c0 24.8125-20.1875 45-45 45h-362c-24.8125 0-45-20.1875-45-45zm0 0"/>
<path d="m181 94.507812v203.898438l180.5-103.621094zm30 50.984376 89.5 49.722656-89.5 51.378906zm0 0"/></symbol></svg>